<?xml version="1.0" encoding="iso-8859-1"?>
<!-- Generator: Adobe Illustrator 19.0.0, SVG Export Plug-In . SVG Version: 6.00 Build 0)  -->
<svg version="1.1" id="Layer_1" xmlns="http://www.w3.org/2000/svg" xmlns:xlink="http://www.w3.org/1999/xlink" x="0px" y="0px"
	 viewBox="0 0 512.001 512.001" style="enable-background:new 0 0 512.001 512.001;" xml:space="preserve">
<path style="fill:#FFDC64;" d="M468.996,410.857H345.11c-4.887,0-8.849,3.962-8.849,8.849v35.396h141.583v-35.396
	C477.845,414.819,473.882,410.857,468.996,410.857z"/>
<path style="fill:#FFC850;" d="M389.355,410.857H345.11c-4.887,0-8.849,3.962-8.849,8.849v35.396h44.245v-35.396
	C380.506,414.819,384.468,410.857,389.355,410.857z"/>
<path style="fill:#8C5F50;" d="M221.623,176.858L5.184,393.297c-6.912,6.912-6.911,18.117,0,25.028s18.117,6.912,25.028,0
	l216.439-216.439L221.623,176.858z"/>
<path style="fill:#7D4B41;" d="M221.623,176.858L5.184,393.297c-6.912,6.912-6.911,18.117,0,25.028l228.954-228.954L221.623,176.858
	z"/>
<path style="fill:#9B735A;" d="M240.395,145.573l-25.028,25.028c-3.456,3.456-3.456,9.058,0,12.515l25.028,25.028
	c3.456,3.456,9.059,3.456,12.515,0l25.028-25.028L240.395,145.573z"/>
<path style="fill:#8C5F50;" d="M277.938,183.115l-37.543-37.543l-25.028,25.028c-3.456,3.456-3.456,9.059,0,12.515l7.262,7.262
	l6.257-6.257c3.456-3.456,9.059-3.456,12.515,0l17.766,17.766L277.938,183.115z"/>
<rect x="207.146" y="110.175" transform="matrix(-0.7071 -0.7071 0.7071 -0.7071 371.5342 445.0361)" style="fill:#FFDC64;" width="141.582" height="70.791"/>
<rect x="191.498" y="147.938" transform="matrix(-0.7071 -0.7071 0.7071 -0.7071 333.7617 460.6713)" style="fill:#FFC850;" width="141.582" height="26.547"/>
<g>
	<path style="fill:#9B735A;" d="M190.337,133.058l-25.028-25.028c-3.456-3.456-3.456-9.059,0-12.515l62.572-62.572
		c3.456-3.456,9.059-3.456,12.515,0l25.028,25.028c3.456,3.456,3.456,9.059,0,12.515l-62.572,62.572
		C199.395,136.513,193.793,136.513,190.337,133.058z"/>
	<path style="fill:#9B735A;" d="M315.48,258.201l-25.028-25.028c-3.456-3.456-3.456-9.059,0-12.515l62.572-62.572
		c3.456-3.456,9.059-3.456,12.515,0l25.028,25.028c3.456,3.456,3.456,9.059,0,12.515l-62.572,62.572
		C324.54,261.658,318.936,261.658,315.48,258.201z"/>
</g>
<g>
	<path style="fill:#8C5F50;" d="M209.108,114.287L184.08,89.259c-3.456-3.456-3.456-9.059,0-12.515l-18.772,18.772
		c-3.456,3.456-3.456,9.058,0,12.515l25.028,25.028c3.456,3.456,9.059,3.456,12.515,0l18.772-18.772
		C218.167,117.743,212.565,117.743,209.108,114.287z"/>
	<path style="fill:#8C5F50;" d="M334.252,239.43l-25.028-25.028c-3.456-3.456-3.456-9.059,0-12.515l-18.772,18.772
		c-3.456,3.456-3.456,9.058,0,12.515l25.028,25.028c3.456,3.456,9.059,3.456,12.515,0l18.772-18.772
		C343.31,242.886,337.708,242.886,334.252,239.43z"/>
	<path style="fill:#8C5F50;" d="M507.743,459.659c-1.97-7.879-9.048-13.405-17.169-13.405H323.532
		c-8.121,0-15.199,5.527-17.169,13.405l-4.124,16.493c-0.698,2.793,1.414,5.497,4.293,5.497h201.042
		c2.878,0,4.991-2.706,4.293-5.497L507.743,459.659z"/>
</g>
<path style="fill:#FFF082;" d="M407.053,393.159c-4.891,0-8.849-3.962-8.849-8.849v-53.094c0-4.887,3.958-8.849,8.849-8.849
	s8.849,3.962,8.849,8.849v53.094C415.902,389.197,411.944,393.159,407.053,393.159z"/>
<g>
	<path style="fill:#FFF6B4;" d="M442.449,393.163c-0.925,0-1.867-0.147-2.8-0.458c-4.632-1.546-7.138-6.559-5.591-11.195
		l8.849-26.547c1.546-4.636,6.524-7.155,11.191-5.596c4.632,1.546,7.138,6.559,5.591,11.195l-8.849,26.547
		C449.604,390.817,446.156,393.163,442.449,393.163z"/>
	<path style="fill:#FFF6B4;" d="M371.657,393.163c-3.708,0-7.155-2.346-8.391-6.054l-8.849-26.547
		c-1.546-4.636,0.959-9.649,5.591-11.195c4.683-1.56,9.644,0.959,11.191,5.596l8.849,26.547c1.546,4.636-0.959,9.649-5.591,11.195
		C373.524,393.017,372.582,393.163,371.657,393.163z"/>
</g>
<path style="fill:#7D4B41;" d="M362.943,476.151l4.124-16.493c1.97-7.879,9.048-13.405,17.169-13.405h-60.703
	c-8.121,0-15.199,5.527-17.169,13.405l-4.124,16.493c-0.698,2.792,1.414,5.497,4.292,5.497h60.703
	C364.357,481.648,362.244,478.944,362.943,476.151z"/>
<g>
</g>
<g>
</g>
<g>
</g>
<g>
</g>
<g>
</g>
<g>
</g>
<g>
</g>
<g>
</g>
<g>
</g>
<g>
</g>
<g>
</g>
<g>
</g>
<g>
</g>
<g>
</g>
<g>
</g>
</svg>
