<?xml version="1.0" encoding="utf-8"?>
<!-- Generator: Adobe Illustrator 22.0.1, SVG Export Plug-In . SVG Version: 6.00 Build 0)  -->
<svg
    version="1.1"
    id="Capa_1"
    xmlns="http://www.w3.org/2000/svg"
    xmlns:xlink="http://www.w3.org/1999/xlink"
    x="0px"
    y="0px"
    viewBox="0 0 224.8 28.1"
    style="enable-background: new 0 0 224.8 28.1"
    xml:space="preserve"
    fill="#fff"
>
    <title>Recurso 1</title>
    <g id="Capa_2_1_">
        <g id="Capa_1-2">
            <path
                d="M3.8,28.1l17-0.4h7.2l2.1-8.1h11.2l2.1,8.1h7.6L43.3,0.1H27.9l-7.1,26.1v-5.1L7.5,21.5V0.1H0v24.3c-0.1,1,0.3,2,1,2.8
			C1.8,27.8,2.8,28.1,3.8,28.1 M34.7,1.9h1.9L39.4,13h-7.7L34.7,1.9z"
            />
            <path
                d="M65.7,27.6c1-0.1,2-0.2,3-0.4c0.9-0.1,1.8-0.4,2.6-0.8c0.7-0.3,1.4-0.8,2-1.3c0.6-0.6,1-1.2,1.3-2
			c0.3-0.9,0.5-1.8,0.4-2.7c0-0.6,0-1.1-0.1-1.7c-0.1-0.5-0.2-0.9-0.4-1.4c-0.2-0.4-0.4-0.8-0.7-1.1c-0.3-0.3-0.6-0.6-0.9-0.8
			c-0.3-0.2-0.7-0.4-1.1-0.6c-0.4-0.1-0.8-0.3-1.2-0.4c-0.4-0.1-0.9-0.2-1.3-0.2c-0.5-0.1-1-0.1-1.3-0.1l-1.4-0.1v-1.6
			c0.1,0,0.2,0,0.2,0l1-0.1l1-0.1c0.4-0.1,0.7-0.1,1-0.2s0.5-0.2,0.9-0.3c0.3-0.1,0.6-0.3,0.8-0.5c0.2-0.2,0.5-0.4,0.7-0.7
			c0.2-0.3,0.4-0.6,0.6-0.9C72.9,9.4,73,9,73,8.6c0.1-0.5,0.1-1,0.1-1.5c0-0.9-0.1-1.9-0.4-2.8c-0.3-0.7-0.7-1.4-1.3-1.9
			c-0.7-0.6-1.4-1-2.3-1.2c-1-0.3-2.1-0.5-3.2-0.6c-1.4-0.1-2.7-0.2-4.1-0.2h-9.6v27.3h10.1C63.6,27.7,64.7,27.7,65.7,27.6
			 M58.4,5.8h5.1h0.8c0.3,0,0.5,0,0.8,0.1l0.6,0.2c0.2,0,0.4,0.2,0.5,0.3c0.1,0.1,0.2,0.3,0.4,0.4c0.1,0.2,0.2,0.4,0.3,0.6
			c0.1,0.5,0.1,1.1,0,1.6c0,0.2-0.1,0.4-0.3,0.6c-0.1,0.2-0.2,0.3-0.4,0.4c-0.1,0.1-0.3,0.3-0.5,0.3l-0.6,0.2
			c-0.2,0.1-0.5,0.1-0.8,0.1h-0.8h-5.1L58.4,5.8z M58.4,16.2h5.7h1c0.3,0,0.6,0,0.9,0.1l0.7,0.1c0.2,0,0.5,0.1,0.7,0.2l0.5,0.3
			c0.2,0.1,0.3,0.2,0.5,0.4c0.1,0.1,0.2,0.3,0.3,0.5c0.1,0.2,0.2,0.4,0.2,0.7c0,0.3,0,0.6,0,0.8c0,0.3,0,0.7-0.1,1
			c-0.2,0.9-0.9,1.6-1.8,1.8c-1.3,0.2-2.7,0.3-4,0.2h-4.6V16.2z"
            />
            <polygon
                points="94.9,23.4 88.8,23.4 88.8,4.7 94.9,4.7 94.9,0.4 77.6,0.4 77.6,4.7 83.8,4.7 83.8,23.4 77.6,23.4 77.6,27.7 
			94.9,27.7 		"
            />
            <polygon
                points="106,27.7 111,27.7 111,4.7 120.1,4.7 120.1,0.4 96.8,0.4 96.8,4.7 106,4.7 		"
            />
            <path
                d="M125.7,24c1.1,1.3,2.5,2.3,4.1,3c1.7,0.7,3.6,1.1,5.5,1.1c3.1,0.1,6.2-0.9,8.6-2.9c2.3-2.1,3.7-4.9,3.9-8h-3.8
			c-0.2,2.2-1.2,4.2-2.8,5.7c-1.7,1.4-3.8,2.1-6,2c-2.6,0.1-5.1-0.9-6.8-2.9c-1.7-2.3-2.6-5.1-2.5-7.9c-0.1-2.8,0.7-5.6,2.4-7.8
			c1.7-2,4.2-3.1,6.8-2.9c2.2-0.1,4.3,0.6,6,2c1.6,1.5,2.6,3.5,2.8,5.7h3.8c-0.2-3.1-1.6-5.9-3.9-8c-2.4-2-5.5-3-8.6-2.9
			c-1.9,0-3.7,0.3-5.5,1.1c-1.6,0.7-3,1.7-4.1,3c-1.1,1.3-2,2.8-2.5,4.5c-0.6,1.8-0.9,3.6-0.9,5.5c0,1.9,0.3,3.8,0.9,5.6
			C123.8,21.2,124.6,22.7,125.7,24"
            />
            <path
                d="M153.6,24c1.1,1.3,2.5,2.3,4.1,3c3.5,1.4,7.4,1.4,10.9,0c1.6-0.7,3-1.7,4.1-3c1.1-1.3,2-2.8,2.5-4.5
			c0.6-1.8,0.9-3.7,0.8-5.5c0-1.9-0.3-3.7-0.9-5.5c-0.5-1.6-1.4-3.2-2.5-4.5c-1.1-1.3-2.5-2.3-4.1-3c-3.5-1.4-7.4-1.4-10.9,0
			c-1.6,0.7-3,1.7-4.1,3c-1.1,1.3-2,2.8-2.6,4.5c-0.6,1.8-0.9,3.7-0.9,5.5c0,1.9,0.3,3.8,0.9,5.6C151.6,21.2,152.4,22.7,153.6,24
			 M154.5,9.6c0.3-1.2,0.9-2.4,1.7-3.4c0.8-1,1.8-1.7,2.9-2.2c1.3-0.6,2.7-0.8,4.1-0.8c1.8-0.1,3.6,0.4,5.1,1.4
			c1.4,0.9,2.5,2.2,3.1,3.8c0.7,1.8,1,3.7,1,5.6c0.1,2.8-0.7,5.6-2.3,7.8c-3.6,3.8-9.6,3.9-13.3,0.3c-0.1-0.1-0.2-0.2-0.3-0.3
			c-1.7-2.3-2.5-5-2.4-7.8C153.9,12.5,154.1,11.1,154.5,9.6"
            />
            <polygon
                points="182.8,3.5 182.3,1.3 183.2,1.3 196.8,27.7 203.2,27.7 203.2,0.4 200.1,0.4 200.1,24.5 200.6,26.8 199.7,26.8 
			186,0.4 179.7,0.4 179.7,27.7 182.8,27.7 		"
            />
            <polygon
                points="210,16.7 222.9,15.9 222.9,13.2 210,14 210,3.1 224.8,3.1 224.8,0.4 206.9,0.4 206.9,27.7 210,27.7 		"
            />
        </g>
    </g>
</svg>
